# xmcd CD database file
#
# Track frame offsets:
#	150
#	22180
#	33604
#	49850
#	61257
#	72207
#	85287
#	96974
#	111248
#	125832
#	138560
#	150548
#	165173
#	177126
#	216955
#	231633
#	249751
#	262685
#	275010
#	286581
#
# Disc length: 3973 seconds
#
# Revision: 1
# Processed by: cddbd v1.5.2PL0 Copyright (c) Steve Scherf et al.
# Submitted via: CDex 1.51
#
DISCID=1f0f8314
DTITLE=Various Artist - Black Is beautiful
DYEAR=2009
DGENRE=Blues
TTITLE0=B.B. King - Chains and things
TTITLE1=Howlin' Wolf - Sitting on top of the world
TTITLE2=Willie Dixon - Little red rooster
TTITLE3=John Lee Hooker - Boom boom
TTITLE4=Big Mama Thornton - Hound dog
TTITLE5=Buddy Guy - Let me love you baby
TTITLE6=Bobby'Blue' Bland - Turn on your love light
TTITLE7=Lowel Fulson - Reconsider baby
TTITLE8=Freddy King - You've got to love her with a feeling
TTITLE9=Amos Milburn - Chicken shack boogie
TTITLE10=Muddy Waters - Long distance call
TTITLE11=Professor Longhair - Big chief
TTITLE12=T-Bone Walker - Bobby soks blues
TTITLE13=Tai Mahal - The celebrated walkin' blues
TTITLE14=Ben Harper and the blind boys of Alabama - Well well well
TTITLE15=Corey Harris - Wild west
TTITLE16=Percey Mayfield - River's invitation
TTITLE17=Elmore James - Cry for me baby
TTITLE18=Pee Wee Crayton - Blues after hours
TTITLE19=Sonny Boy Williamson - Don"t start me to talkin'
EXTD=YEAR: 2009
EXTT0=
EXTT1=
EXTT2=
EXTT3=
EXTT4=
EXTT5=
EXTT6=
EXTT7=
EXTT8=
EXTT9=
EXTT10=
EXTT11=
EXTT12=
EXTT13=
EXTT14=
EXTT15=
EXTT16=
EXTT17=
EXTT18=
EXTT19=
PLAYORDER=
